<svg width="45.833332" height="25.000000" viewBox="0 0 45.8333 25" fill="none" xmlns="http://www.w3.org/2000/svg" xmlns:xlink="http://www.w3.org/1999/xlink">
	<desc>
			Created with Pixso.
	</desc>
	<defs/>
	<path id="Vector" d="M41.6667 0C38.6458 0 36.9583 3 37.6458 5.22919L30.25 12.6458C29.625 12.4583 28.7083 12.4583 28.0833 12.6458L22.7708 7.33331C23.4792 5.10419 21.7917 2.08331 18.75 2.08331C15.7292 2.08331 14.0208 5.08331 14.7292 7.33331L5.22917 16.8125C3 16.125 0 17.8125 0 20.8333C0 23.125 1.875 25 4.16667 25C7.1875 25 8.875 22 8.1875 19.7708L17.6667 10.2708C18.2917 10.4583 19.2083 10.4583 19.8333 10.2708L25.1458 15.5833C24.4375 17.8125 26.125 20.8333 29.1667 20.8333C32.1875 20.8333 33.8958 17.8333 33.1875 15.5833L40.6042 8.1875C42.8333 8.875 45.8333 7.1875 45.8333 4.16669C45.8333 1.875 43.9583 0 41.6667 0Z" fill="#131314" fill-opacity="1.000000" fill-rule="nonzero"/>
</svg>
