<svg width="20.000000" height="20.000000" viewBox="0 0 20 20" fill="none" xmlns="http://www.w3.org/2000/svg" xmlns:xlink="http://www.w3.org/1999/xlink">
	<desc>
			Created with Pixso.
	</desc>
	<defs>
		<clipPath id="clip1_63">
			<rect id="Frame" width="20.000000" height="20.000000" fill="white" fill-opacity="0"/>
		</clipPath>
	</defs>
	<rect id="Frame" width="20.000000" height="20.000000" fill="#FFFFFF" fill-opacity="0"/>
	<g clip-path="url(#clip1_63)">
		<path id="Vector" d="M20 3.22302C19.2651 3.55768 18.4739 3.784 17.644 3.88513C18.4915 3.36511 19.1419 2.54047 19.4482 1.55817C18.6548 2.03967 17.7777 2.39001 16.841 2.57782C16.0944 1.76044 15.0273 1.25 13.8464 1.25C11.5818 1.25 9.74469 3.13397 9.74469 5.45728C9.74469 5.78711 9.77988 6.10736 9.85031 6.41553C6.44009 6.23975 3.41727 4.56647 1.39227 2.01801C1.03891 2.6416 0.837006 3.36511 0.837006 4.1355C0.837006 5.59454 1.56131 6.88263 2.66245 7.63739C1.99097 7.61694 1.35703 7.42554 0.802948 7.11255L0.802948 7.16431C0.802948 9.20355 2.21753 10.9045 4.09579 11.2897C3.75183 11.3884 3.3891 11.4378 3.01462 11.4378C2.75049 11.4378 2.49222 11.4125 2.24219 11.3632C2.76459 13.034 4.2789 14.2511 6.07501 14.2836C4.67099 15.4127 2.90073 16.0856 0.979034 16.0856C0.64801 16.0856 0.320465 16.0663 0 16.0279C1.81604 17.2196 3.97369 17.9166 6.28983 17.9166C13.8381 17.9166 17.9644 11.5064 17.9644 5.94604C17.9644 5.76306 17.9609 5.58008 17.9539 5.4007C18.7556 4.80725 19.4518 4.06689 20 3.22302Z" fill="#00D1FF" fill-opacity="1.000000" fill-rule="evenodd"/>
	</g>
</svg>
